<svg version="1.1" xmlns="http://www.w3.org/2000/svg" xmlns:xlink="http://www.w3.org/1999/xlink" width="1024px" height="1024px" viewBox="0,0,256,256"><g fill="#1a86fa" fill-rule="nonzero" stroke="none" stroke-width="1" stroke-linecap="butt" stroke-linejoin="miter" stroke-miterlimit="10" stroke-dasharray="" stroke-dashoffset="0" font-family="none" font-weight="none" font-size="none" text-anchor="none" style="mix-blend-mode: normal"><g transform="translate(0.0125,0.01806) scale(0.25,0.25)"><path d="M325.5,851.2c-8,0 -14.9,-3 -20.9,-8l-231.6,-219.7c-5,-6 -9,-12.9 -9,-21.9c0,-8 3,-15.9 9,-21.9l231.7,-229.7c8.9,-9 20.9,-10.9 32.8,-6c10.9,5 17.9,15.9 17.9,27.8v109.4h363c16.9,0 29.8,12.9 29.8,29.8v37.8l139.2,-138.2l-139.2,-138.1v49.7c0,16.9 -12.9,29.8 -29.8,29.8h-231.8c-16.9,0 -29.8,-12.9 -29.8,-29.8c0,-16.9 12.9,-29.8 29.8,-29.8h201.9v-89.5c0,-11.9 7,-22.9 17.9,-27.8c10.9,-5 23.9,-2 32.8,6l211.8,209.7c6,6 8.9,12.9 8.9,20.9c0,8 -3,15.9 -8.9,20.9l-211.8,209.8c-9,9 -20.9,10.9 -32.8,6c-10.9,-5 -17.9,-15.9 -17.9,-27.8v-79.6h-363c-16.9,0 -29.8,-12.9 -29.8,-29.8v-68.6l-159.1,157l159.1,150.2v-60.7c0,-16.9 12.9,-29.8 29.8,-29.8h231.7c16.9,0 29.8,12.9 29.8,29.8c0,16.9 -12.9,29.8 -29.8,29.8h-201.8v99.4c0,11.9 -7,22.9 -17.9,27.8c-4,4.1 -8,5.1 -12,5.1zM325.5,851.2"></path></g></g></svg>