<svg version="1.1" xmlns="http://www.w3.org/2000/svg" xmlns:xlink="http://www.w3.org/1999/xlink" width="786.81995" height="786.81995" viewBox="0,0,256,256"><defs><clipPath id="clip-1"><path d="M0,850.394h850.394v-850.394h-850.394z" id="clipPath18" fill="none"></path></clipPath></defs><g fill="none" fill-rule="nonzero" stroke="none" stroke-width="1" stroke-linecap="butt" stroke-linejoin="miter" stroke-miterlimit="10" stroke-dasharray="" stroke-dashoffset="0" font-family="none" font-weight="none" font-size="none" text-anchor="none" style="mix-blend-mode: normal"><g transform="translate(-0.11475,0.18284) scale(1.22971,1.22971)"><g transform="translate(-5.88748,-271.69643)" id="layer1"><g transform="translate(-39.92954,525.63751) scale(0.35278,-0.35278)" id="g10"><g id="g12"><g clip-path="url(#clip-1)" id="g14"><path d="M424.933,130.843c162.335,0 293.932,131.597 293.932,293.933c0,162.334 -131.597,293.932 -293.932,293.932c-162.335,0 -293.933,-131.598 -293.933,-293.932c0,-162.336 131.598,-293.933 293.933,-293.933" id="path20" fill="#ffffff"></path><path d="M271.701,425.625l50.162,50.286c1.663,1.695 2.591,3.939 2.591,6.319c0,4.96 -4.032,8.988 -8.992,8.988c-2.416,0 -4.681,-0.947 -6.389,-2.676c-0.005,-0.01 -50.117,-50.093 -50.117,-50.093l-50.341,50.168c-1.701,1.677 -3.955,2.601 -6.345,2.601c-4.954,0 -8.987,-4.026 -8.987,-8.981c0,-2.417 0.965,-4.685 2.697,-6.394l50.155,-50.148l-50.129,-50.223c-1.762,-1.735 -2.723,-4.008 -2.723,-6.436c0,-4.959 4.033,-8.982 8.987,-8.982c2.394,0 4.65,0.929 6.345,2.625l50.263,50.195l50.072,-50.012c1.776,-1.836 4.067,-2.814 6.512,-2.814c4.955,0 8.987,4.029 8.987,8.988c0,2.393 -0.927,4.641 -2.614,6.336z" id="path22" fill="#0b0e6a"></path><path d="M569.906,425.64c0,-9.006 7.323,-16.332 16.34,-16.332c8.996,0 16.322,7.326 16.322,16.332c0,9.008 -7.326,16.333 -16.322,16.333c-9.017,0 -16.34,-7.325 -16.34,-16.333" id="path24" fill="#0b0e6a"></path><path d="M538.93,425.632c0,26.08 21.216,47.3 47.299,47.3c26.07,0 47.291,-21.22 47.291,-47.3c0,-26.074 -21.221,-47.285 -47.291,-47.285c-26.083,0 -47.299,21.211 -47.299,47.285M520.324,425.632c0,-36.334 29.565,-65.895 65.905,-65.895c36.339,0 65.919,29.561 65.919,65.895c0,36.339 -29.58,65.908 -65.919,65.908c-36.34,0 -65.905,-29.569 -65.905,-65.908" id="path26" fill="#0b0e6a"></path><path d="M515.646,490.413l-2.765,0.008c-8.301,0 -16.307,-2.618 -22.994,-7.771c-0.881,4.032 -4.485,7.066 -8.778,7.066c-4.941,0 -8.9,-3.959 -8.912,-8.91c0,-0.018 0.03,-111 0.03,-111c0.013,-4.942 4.044,-8.959 8.988,-8.959c4.943,0 8.973,4.017 8.986,8.97c0,0.022 0.004,68.251 0.004,68.251c0,22.748 2.08,31.935 21.566,34.37c1.801,0.224 3.76,0.189 3.768,0.189c5.332,0.183 9.121,3.847 9.121,8.799c0,4.955 -4.045,8.987 -9.014,8.987" id="path28" fill="#0b0e6a"></path><path d="M343.072,436.482c0,0.246 0.019,0.502 0.031,0.755c5.218,20.627 23.899,35.891 46.147,35.891c22.517,0 41.369,-15.639 46.32,-36.646zM453.975,438.179c-3.873,18.337 -13.912,33.399 -29.199,43.072c-22.346,14.187 -51.854,13.402 -73.438,-1.947c-17.606,-12.525 -27.769,-33.014 -27.769,-54.12c0,-5.292 0.638,-10.634 1.966,-15.892c6.648,-26.152 29.13,-45.949 55.934,-49.23c7.954,-0.963 15.696,-0.502 23.713,1.574c6.889,1.676 13.555,4.47 19.697,8.406c6.375,4.098 11.701,9.502 16.859,15.971c0.104,0.119 0.209,0.224 0.313,0.349c3.58,4.44 2.916,10.754 -1.018,13.768c-3.318,2.543 -8.888,3.574 -13.271,-2.039c-0.942,-1.342 -1.993,-2.723 -3.15,-4.104c-3.485,-3.851 -7.809,-7.582 -12.99,-10.476c-6.593,-3.522 -14.106,-5.535 -22.093,-5.58c-26.142,0.291 -40.131,18.539 -45.107,31.564c-0.869,2.432 -1.539,4.955 -2.006,7.553c-0.061,0.486 -0.106,0.955 -0.124,1.387c5.405,0 93.812,0.015 93.812,0.015c12.861,0.27 19.783,9.348 17.871,19.729" id="path30" fill="#0b0e6a"></path></g></g></g></g></g></g></svg>